<svg preserveAspectRatio="none" width="100%" height="100%" overflow="visible" style="display: block;" viewBox="0 0 20.949 21.4598" fill="none" xmlns="http://www.w3.org/2000/svg">
<g id="Frame 1171281107" opacity="0.8">
<g id="Vector">
<path d="M6.45852 14.2412L11.2216 1.90094L11.9473 3.69754L7.61542 14.2412H6.45852Z" fill="var(--fill-0, black)"/>
<path d="M15.5459 0.00453686H10.4555L16.2944 14.459H20.9447L15.5459 0.00453686Z" fill="var(--fill-0, black)"/>
<path d="M6.45852 14.2412L11.2216 1.90094L11.9473 3.69754L7.61542 14.2412H6.45852Z" stroke="var(--stroke-0, black)" stroke-width="0.00907372"/>
<path d="M15.5459 0.00453686H10.4555L16.2944 14.459H20.9447L15.5459 0.00453686Z" stroke="var(--stroke-0, black)" stroke-width="0.00907372"/>
</g>
<path id="Vector 1" d="M1.17068 4.43374C2.6255 2.49474 5.62073 1.13282 8.42068 1.29409L9.25661 1.34194L8.55251 1.79409C8.02627 2.13222 7.31129 2.64272 6.7615 3.25014C6.2054 3.86458 5.86491 4.52524 5.9695 5.17885C6.03514 5.58864 6.3827 6.01072 6.99294 6.43667C7.59289 6.85542 8.39264 7.2404 9.25759 7.59585C10.1206 7.9505 11.0338 8.26942 11.8582 8.55971C12.6752 8.84741 13.4164 9.1113 13.9129 9.35073C14.9332 9.84286 16.3824 11.2251 16.6023 13.1076C16.8262 15.0248 15.7663 17.3316 12.0232 19.6359L12.0134 19.6417L12.0037 19.6466C10.8401 20.2385 7.74797 21.3642 4.59939 21.1642L4.53396 20.633C5.33907 20.378 6.55698 19.821 7.574 18.9874C8.59023 18.1545 9.36809 17.0778 9.39724 15.7804C9.28968 14.7796 8.66192 14.1053 7.58181 13.4191C7.03737 13.0732 6.39346 12.7341 5.66482 12.3517C4.93952 11.971 4.13554 11.55 3.28493 11.046C1.58973 10.0417 0.667019 8.9011 0.374777 7.73061C0.0815741 6.55586 0.437761 5.4106 1.17068 4.43374Z" fill="var(--fill-0, black)" stroke="var(--stroke-0, #F7F7F4)" stroke-width="0.544423"/>
</g>
</svg>
