<svg width="96" height="96" viewBox="0 0 96 96" fill="none" xmlns="http://www.w3.org/2000/svg">
  <rect width="96" height="96" rx="24" fill="#111015"/>
  <path d="M28 63.5V32.5H46.3C53.8 32.5 58.2 36.6 58.2 42.9C58.2 47.5 55.7 51 51.5 52.7L58.8 63.5H51.7L45.4 54.1H34.1V63.5H28ZM34.1 48.7H45.5C49.4 48.7 51.8 46.5 51.8 43.1C51.8 39.6 49.4 37.6 45.5 37.6H34.1V48.7Z" fill="#F3ECE3"/>
  <path d="M65.7 63.4C62.8 63.4 60.5 61.2 60.5 58.4C60.5 55.6 62.8 53.3 65.7 53.3C68.5 53.3 70.8 55.6 70.8 58.4C70.8 61.2 68.5 63.4 65.7 63.4Z" fill="#D2B692"/>
</svg>
