<svg width="1600" height="1000" viewBox="0 0 1600 1000" fill="none" xmlns="http://www.w3.org/2000/svg">
  <rect width="1600" height="1000" fill="#0C0F14"/>
  <rect x="92" y="88" width="1416" height="824" rx="42" fill="#10161E"/>
  <rect x="150" y="160" width="460" height="74" rx="20" fill="rgba(255,255,255,0.08)"/>
  <rect x="150" y="282" width="720" height="26" rx="13" fill="rgba(255,255,255,0.12)"/>
  <rect x="150" y="330" width="600" height="24" rx="12" fill="rgba(255,255,255,0.08)"/>
  <rect x="150" y="420" width="620" height="260" rx="30" fill="url(#paint0_linear_1_3)"/>
  <rect x="830" y="220" width="500" height="560" rx="30" fill="rgba(255,255,255,0.06)"/>
  <path d="M944 530C944 425.066 1029.07 340 1134 340C1238.93 340 1324 425.066 1324 530C1324 634.934 1238.93 720 1134 720C1029.07 720 944 634.934 944 530Z" fill="rgba(174,220,255,0.09)"/>
  <path d="M1008 530C1008 460.413 1064.41 404 1134 404C1203.59 404 1260 460.413 1260 530C1260 599.587 1203.59 656 1134 656C1064.41 656 1008 599.587 1008 530Z" fill="rgba(221,241,255,0.12)"/>
  <defs>
    <linearGradient id="paint0_linear_1_3" x1="460" y1="420" x2="460" y2="680" gradientUnits="userSpaceOnUse">
      <stop stop-color="#1A2330"/>
      <stop offset="1" stop-color="#0F141C"/>
    </linearGradient>
  </defs>
</svg>
